<mxGraphModel dx="0" dy="0" grid="1" gridSize="10" guides="1" tooltips="1" connect="1" arrows="1" fold="1" page="0" pageScale="1" background="none" math="0" shadow="0">
  <root>
    <mxCell id="0" />
    <mxCell id="1" parent="0" />
    <mxCell id="node3" parent="1" vertex="1" value="&lt;p style=&quot;margin:0px;margin-top:4px;text-align:center;&quot;&gt;&lt;b&gt;Bank&lt;/b&gt;&lt;/p&gt;&lt;hr size=&quot;1&quot;/&gt;&lt;p style=&quot;margin:0 0 0 4px;line-height:1.6;&quot;&gt;+ Bank(String, String, String): &lt;br/&gt;+ Bank(String, String, String, HashMap&amp;lt;String, Konto&amp;gt;, ArrayList&amp;lt;Kunde&amp;gt;): &lt;br/&gt;+ Bank(): &lt;/p&gt;&lt;hr size=&quot;1&quot;/&gt;&lt;p style=&quot;margin:0 0 0 4px;line-height:1.6;&quot;&gt;~ kunden: ArrayList&amp;lt;Kunde&amp;gt;&lt;br/&gt;- ADRESSE: String&lt;br/&gt;~ adresse: String&lt;br/&gt;~ blz: String&lt;br/&gt;+ BANKLEITZAHL: String&lt;br/&gt;~ name: String&lt;br/&gt;- NAME: String&lt;br/&gt;~ konten: HashMap&amp;lt;String, Konto&amp;gt;&lt;/p&gt;&lt;hr size=&quot;1&quot;/&gt;&lt;p style=&quot;margin:0 0 0 4px;line-height:1.6;&quot;&gt;+ outputMoney(String, double): boolean&lt;br/&gt;+ addKonto(Konto): Konto&lt;br/&gt;+ deleteKontofromIBAN(String): Konto&lt;br/&gt;+ getName(): String&lt;br/&gt;+ addKunde(String, String, String, LocalDate): Kunde&lt;br/&gt;+ deleteKundeAtPosition(int): Kunde&lt;br/&gt;+ deleteKonto(Konto): boolean&lt;br/&gt;+ getBlz(): String&lt;br/&gt;+ getKontofromIBAN(String): Konto&lt;br/&gt;+ unAssignKonto(Kunde, String): Konto&lt;br/&gt;+ toString(): String&lt;br/&gt;+ deleteKunde(Kunde): boolean&lt;br/&gt;+ getAdresse(): String&lt;br/&gt;+ assignKonto(Kunde, String): boolean&lt;br/&gt;+ transferMoney(String, String, double): boolean&lt;br/&gt;+ getKundefromIBAN(String): Kunde&lt;br/&gt;+ addMoney(String, double): boolean&lt;br/&gt;+ getKunden(): ArrayList&amp;lt;Kunde&amp;gt;&lt;/p&gt;" style="verticalAlign=top;align=left;overflow=fill;fontSize=14;fontFamily=Helvetica;html=1;rounded=0;shadow=0;comic=0;labelBackgroundColor=none;strokeWidth=1;">
      <mxGeometry x="-802" y="1584" width="431" height="739" as="geometry" />
    </mxCell>
    <mxCell id="node8" parent="1" vertex="1" value="&lt;p style=&quot;margin:0px;margin-top:4px;text-align:center;&quot;&gt;&lt;b&gt;Bankdaten&lt;/b&gt;&lt;/p&gt;&lt;hr size=&quot;1&quot;/&gt;&lt;p style=&quot;margin:0 0 0 4px;line-height:1.6;&quot;&gt;+ Bankdaten(String, String, String, ArrayList&amp;lt;Kundendaten&amp;gt;): &lt;br/&gt;+ Bankdaten(): &lt;/p&gt;&lt;hr size=&quot;1&quot;/&gt;&lt;p style=&quot;margin:0 0 0 4px;line-height:1.6;&quot;&gt;~ name: String&lt;br/&gt;~ adresse: String&lt;br/&gt;~ blz: String&lt;br/&gt;~ kunden: ArrayList&amp;lt;Kundendaten&amp;gt;&lt;/p&gt;&lt;hr size=&quot;1&quot;/&gt;&lt;p style=&quot;margin:0 0 0 4px;line-height:1.6;&quot;&gt;+ getName(): String&lt;br/&gt;+ setAdresse(String): void&lt;br/&gt;+ getKunden(): ArrayList&amp;lt;Kundendaten&amp;gt;&lt;br/&gt;+ getBlz(): String&lt;br/&gt;+ getAdresse(): String&lt;br/&gt;+ setKunden(ArrayList&amp;lt;Kundendaten&amp;gt;): void&lt;br/&gt;+ setBlz(String): void&lt;br/&gt;+ setName(String): void&lt;/p&gt;" style="verticalAlign=top;align=left;overflow=fill;fontSize=14;fontFamily=Helvetica;html=1;rounded=0;shadow=0;comic=0;labelBackgroundColor=none;strokeWidth=1;">
      <mxGeometry x="-959" y="575" width="415" height="379" as="geometry" />
    </mxCell>
    <mxCell id="node5" parent="1" vertex="1" value="&lt;p style=&quot;margin:0px;margin-top:4px;text-align:center;&quot;&gt;&lt;b&gt;ConvertBank&lt;/b&gt;&lt;/p&gt;&lt;hr size=&quot;1&quot;/&gt;&lt;p style=&quot;margin:0 0 0 4px;line-height:1.6;&quot;&gt;+ ConvertBank(): &lt;/p&gt;&lt;hr size=&quot;1&quot;/&gt;&lt;p style=&quot;margin:0 0 0 4px;line-height:1.6;&quot;&gt;+ bankToBankdaten(Bank): Bankdaten&lt;br/&gt;+ bankdatenToBank(Bankdaten): Bank&lt;/p&gt;" style="verticalAlign=top;align=left;overflow=fill;fontSize=14;fontFamily=Helvetica;html=1;rounded=0;shadow=0;comic=0;labelBackgroundColor=none;strokeWidth=1;">
      <mxGeometry x="-1182" y="1223" width="271" height="122" as="geometry" />
    </mxCell>
    <mxCell id="node4" parent="1" vertex="1" value="&lt;p style=&quot;margin:0px;margin-top:4px;text-align:center;&quot;&gt;&lt;b&gt;Giro&lt;/b&gt;&lt;/p&gt;&lt;hr size=&quot;1&quot;/&gt;&lt;p style=&quot;margin:0 0 0 4px;line-height:1.6;&quot;&gt;+ Giro(String, double): &lt;br/&gt;+ Giro(): &lt;/p&gt;&lt;hr size=&quot;1&quot;/&gt;&lt;p style=&quot;margin:0 0 0 4px;line-height:1.6;&quot;&gt;~ maxDispo: double&lt;br/&gt;~ maxAuszahlung: double&lt;/p&gt;&lt;hr size=&quot;1&quot;/&gt;&lt;p style=&quot;margin:0 0 0 4px;line-height:1.6;&quot;&gt;+ getType(): String&lt;br/&gt;+ toString(): String&lt;br/&gt;+ getMaxAuszahlung(): double&lt;br/&gt;+ getMaxDispo(): double&lt;/p&gt;" style="verticalAlign=top;align=left;overflow=fill;fontSize=14;fontFamily=Helvetica;html=1;rounded=0;shadow=0;comic=0;labelBackgroundColor=none;strokeWidth=1;">
      <mxGeometry x="-252" y="1584" width="222" height="235" as="geometry" />
    </mxCell>
    <mxCell id="node7" parent="1" vertex="1" value="&lt;p style=&quot;margin:0px;margin-top:4px;text-align:center;&quot;&gt;&lt;b&gt;Kontendaten&lt;/b&gt;&lt;/p&gt;&lt;hr size=&quot;1&quot;/&gt;&lt;p style=&quot;margin:0 0 0 4px;line-height:1.6;&quot;&gt;+ Kontendaten(String, double, double, String): &lt;br/&gt;+ Kontendaten(): &lt;/p&gt;&lt;hr size=&quot;1&quot;/&gt;&lt;p style=&quot;margin:0 0 0 4px;line-height:1.6;&quot;&gt;~ iban: String&lt;br/&gt;- type: String&lt;br/&gt;- saldo: double&lt;br/&gt;- maxDispo: double&lt;/p&gt;&lt;hr size=&quot;1&quot;/&gt;&lt;p style=&quot;margin:0 0 0 4px;line-height:1.6;&quot;&gt;+ getIban(): String&lt;br/&gt;+ setType(String): void&lt;br/&gt;+ getSaldo(): double&lt;br/&gt;+ setSaldo(double): void&lt;br/&gt;+ setMaxDispo(double): void&lt;br/&gt;+ getMaxDispo(): double&lt;br/&gt;+ setIban(String): void&lt;br/&gt;+ getType(): String&lt;/p&gt;" style="verticalAlign=top;align=left;overflow=fill;fontSize=14;fontFamily=Helvetica;html=1;rounded=0;shadow=0;comic=0;labelBackgroundColor=none;strokeWidth=1;">
      <mxGeometry x="-912" y="-499" width="320" height="379" as="geometry" />
    </mxCell>
    <mxCell id="node9" parent="1" vertex="1" value="&lt;p style=&quot;margin:0px;margin-top:4px;text-align:center;&quot;&gt;&lt;b&gt;Konto&lt;/b&gt;&lt;/p&gt;&lt;hr size=&quot;1&quot;/&gt;&lt;p style=&quot;margin:0 0 0 4px;line-height:1.6;&quot;&gt;+ Konto(): &lt;br/&gt;+ Konto(String, double): &lt;br/&gt;+ Konto(String): &lt;/p&gt;&lt;hr size=&quot;1&quot;/&gt;&lt;p style=&quot;margin:0 0 0 4px;line-height:1.6;&quot;&gt;- saldo: double&lt;br/&gt;- maxDispo: double&lt;br/&gt;~ iban: String&lt;/p&gt;&lt;hr size=&quot;1&quot;/&gt;&lt;p style=&quot;margin:0 0 0 4px;line-height:1.6;&quot;&gt;+ generateIBANDE(String): String&lt;br/&gt;+ setSaldo(double): void&lt;br/&gt;+ assembleIban(String, String, String): String&lt;br/&gt;+ getMaxDispo(): double&lt;br/&gt;+ generateChecksum(String, String): long&lt;br/&gt;+ getIban(): String&lt;br/&gt;+ toString(): String&lt;br/&gt;+ getSaldo(): double&lt;br/&gt;+ getType(): String&lt;/p&gt;" style="verticalAlign=top;align=left;overflow=fill;fontSize=14;fontFamily=Helvetica;html=1;rounded=0;shadow=0;comic=0;labelBackgroundColor=none;strokeWidth=1;">
      <mxGeometry x="-295" y="1078" width="309" height="403" as="geometry" />
    </mxCell>
    <mxCell id="node10" parent="1" vertex="1" value="&lt;p style=&quot;margin:0px;margin-top:4px;text-align:center;&quot;&gt;&lt;b&gt;Kunde&lt;/b&gt;&lt;/p&gt;&lt;hr size=&quot;1&quot;/&gt;&lt;p style=&quot;margin:0 0 0 4px;line-height:1.6;&quot;&gt;+ Kunde(String, String, String, LocalDate): &lt;br/&gt;+ Kunde(String, String, String, LocalDate, ArrayList&amp;lt;Konto&amp;gt;): &lt;br/&gt;+ Kunde(): &lt;/p&gt;&lt;hr size=&quot;1&quot;/&gt;&lt;p style=&quot;margin:0 0 0 4px;line-height:1.6;&quot;&gt;~ geburtsdatum: LocalDate&lt;br/&gt;~ tgeld: int&lt;br/&gt;~ adresse: String&lt;br/&gt;~ giro: int&lt;br/&gt;~ name: String&lt;br/&gt;~ vorname: String&lt;br/&gt;~ konten: ArrayList&amp;lt;Konto&amp;gt;&lt;/p&gt;&lt;hr size=&quot;1&quot;/&gt;&lt;p style=&quot;margin:0 0 0 4px;line-height:1.6;&quot;&gt;+ getAdresse(): String&lt;br/&gt;+ toString(): String&lt;br/&gt;+ getName(): String&lt;br/&gt;+ updateIndex(): void&lt;br/&gt;+ deleteKonto(Konto): Konto&lt;br/&gt;+ getVorname(): String&lt;br/&gt;+ addKonto(Konto): boolean&lt;br/&gt;+ getKonten(): ArrayList&amp;lt;Konto&amp;gt;&lt;br/&gt;+ getStringValue(): String&lt;br/&gt;+ getGeburtsdatum(): LocalDate&lt;/p&gt;" style="verticalAlign=top;align=left;overflow=fill;fontSize=14;fontFamily=Helvetica;html=1;rounded=0;shadow=0;comic=0;labelBackgroundColor=none;strokeWidth=1;">
      <mxGeometry x="-486" y="431" width="413" height="523" as="geometry" />
    </mxCell>
    <mxCell id="node2" parent="1" vertex="1" value="&lt;p style=&quot;margin:0px;margin-top:4px;text-align:center;&quot;&gt;&lt;b&gt;Kundendaten&lt;/b&gt;&lt;/p&gt;&lt;hr size=&quot;1&quot;/&gt;&lt;p style=&quot;margin:0 0 0 4px;line-height:1.6;&quot;&gt;+ Kundendaten(): &lt;br/&gt;+ Kundendaten(int, String, String, String, LocalDate, ArrayList&amp;lt;Kontendaten&amp;gt;): &lt;/p&gt;&lt;hr size=&quot;1&quot;/&gt;&lt;p style=&quot;margin:0 0 0 4px;line-height:1.6;&quot;&gt;~ geburtsdatum: LocalDate&lt;br/&gt;~ name: String&lt;br/&gt;~ kundennummer: int&lt;br/&gt;~ vorname: String&lt;br/&gt;~ adresse: String&lt;br/&gt;~ konten: ArrayList&amp;lt;Kontendaten&amp;gt;&lt;/p&gt;&lt;hr size=&quot;1&quot;/&gt;&lt;p style=&quot;margin:0 0 0 4px;line-height:1.6;&quot;&gt;+ setKonten(ArrayList&amp;lt;Kontendaten&amp;gt;): void&lt;br/&gt;+ setVorname(String): void&lt;br/&gt;+ setAdresse(String): void&lt;br/&gt;+ setGeburtsdatum(LocalDate): void&lt;br/&gt;+ setName(String): void&lt;br/&gt;+ getKonten(): ArrayList&amp;lt;Kontendaten&amp;gt;&lt;br/&gt;+ getName(): String&lt;br/&gt;+ setKundennummer(int): void&lt;br/&gt;+ getGeburtsdatum(): LocalDate&lt;br/&gt;+ getAdresse(): String&lt;br/&gt;+ getKundennummer(): int&lt;br/&gt;+ getVorname(): String&lt;/p&gt;" style="verticalAlign=top;align=left;overflow=fill;fontSize=14;fontFamily=Helvetica;html=1;rounded=0;shadow=0;comic=0;labelBackgroundColor=none;strokeWidth=1;">
      <mxGeometry x="-960" y="-70" width="416" height="523" as="geometry" />
    </mxCell>
    <mxCell id="node6" parent="1" vertex="1" value="&lt;p style=&quot;margin:0px;margin-top:4px;text-align:center;&quot;&gt;&lt;b&gt;LocalDateAdapter&lt;/b&gt;&lt;/p&gt;&lt;hr size=&quot;1&quot;/&gt;&lt;p style=&quot;margin:0 0 0 4px;line-height:1.6;&quot;&gt;+ LocalDateAdapter(): &lt;/p&gt;&lt;hr size=&quot;1&quot;/&gt;&lt;p style=&quot;margin:0 0 0 4px;line-height:1.6;&quot;&gt;+ marshal(LocalDate): String&lt;br/&gt;+ unmarshal(String): LocalDate&lt;/p&gt;" style="verticalAlign=top;align=left;overflow=fill;fontSize=14;fontFamily=Helvetica;html=1;rounded=0;shadow=0;comic=0;labelBackgroundColor=none;strokeWidth=1;">
      <mxGeometry x="-865" y="1223" width="226" height="122" as="geometry" />
    </mxCell>
    <mxCell id="node0" parent="1" vertex="1" value="&lt;p style=&quot;margin:0px;margin-top:4px;text-align:center;&quot;&gt;&lt;b&gt;Starter&lt;/b&gt;&lt;/p&gt;&lt;hr size=&quot;1&quot;/&gt;&lt;p style=&quot;margin:0 0 0 4px;line-height:1.6;&quot;&gt;+ Starter(): &lt;/p&gt;&lt;hr size=&quot;1&quot;/&gt;&lt;p style=&quot;margin:0 0 0 4px;line-height:1.6;&quot;&gt;- convertBank: ConvertBank&lt;br/&gt;- bank: Bank&lt;br/&gt;- bankdaten: Bankdaten&lt;/p&gt;&lt;hr size=&quot;1&quot;/&gt;&lt;p style=&quot;margin:0 0 0 4px;line-height:1.6;&quot;&gt;+ geldTransfer(): void&lt;br/&gt;+ geldAuszahlen(): void&lt;br/&gt;+ promiseLocalDateFromConsole(): LocalDate&lt;br/&gt;+ getKundenListe(): void&lt;br/&gt;+ showProgressBar(): void&lt;br/&gt;+ saveBankdaten(Bankdaten): void&lt;br/&gt;+ waitThread(): void&lt;br/&gt;+ promiseIntFromConsole(): int&lt;br/&gt;+ geldAufloesen(double): void&lt;br/&gt;+ kontoAufloesen(): void&lt;br/&gt;+ main(String[]): void&lt;br/&gt;+ kontoZuKunde(Konto): void&lt;br/&gt;+ kontoEroeffnen(): void&lt;br/&gt;+ promiseStringFromConsole(): String&lt;br/&gt;+ promiseDoubleFromConsole(): double&lt;br/&gt;+ geldAuszahlen(double): void&lt;br/&gt;+ loadBankdaten(): Bankdaten&lt;br/&gt;+ kundeLoeschen(): void&lt;br/&gt;+ geldEinzahlen(): void&lt;br/&gt;+ addKundeToBank(): void&lt;br/&gt;+ getKontenListe(): void&lt;/p&gt;" style="verticalAlign=top;align=left;overflow=fill;fontSize=14;fontFamily=Helvetica;html=1;rounded=0;shadow=0;comic=0;labelBackgroundColor=none;strokeWidth=1;">
      <mxGeometry x="-747" y="2411" width="320" height="643" as="geometry" />
    </mxCell>
    <mxCell id="node1" parent="1" vertex="1" value="&lt;p style=&quot;margin:0px;margin-top:4px;text-align:center;&quot;&gt;&lt;b&gt;Tagesgeld&lt;/b&gt;&lt;/p&gt;&lt;hr size=&quot;1&quot;/&gt;&lt;p style=&quot;margin:0 0 0 4px;line-height:1.6;&quot;&gt;+ Tagesgeld(String, double): &lt;br/&gt;+ Tagesgeld(): &lt;/p&gt;&lt;hr size=&quot;1&quot;/&gt;&lt;p style=&quot;margin:0 0 0 4px;line-height:1.6;&quot;&gt;~ zinsen: double&lt;/p&gt;&lt;hr size=&quot;1&quot;/&gt;&lt;p style=&quot;margin:0 0 0 4px;line-height:1.6;&quot;&gt;+ getType(): String&lt;br/&gt;+ toString(): String&lt;br/&gt;+ getZinsen(): double&lt;/p&gt;" style="verticalAlign=top;align=left;overflow=fill;fontSize=14;fontFamily=Helvetica;html=1;rounded=0;shadow=0;comic=0;labelBackgroundColor=none;strokeWidth=1;">
      <mxGeometry x="22" y="1584" width="213" height="187" as="geometry" />
    </mxCell>
    <mxCell id="edge6" edge="1" value="" parent="1" source="node3" target="node5" style="html=1;rounded=1;edgeStyle=orthogonalEdgeStyle;dashed=0;startArrow=none;endArrow=block;endSize=12;strokeColor=#000082;exitX=0.500;exitY=0.000;exitDx=0;exitDy=0;entryX=0.500;entryY=1.000;entryDx=0;entryDy=0;">
      <mxGeometry width="50" height="50" relative="1" as="geometry">
        <Array as="points">
          <mxPoint x="-587" y="1512" />
          <mxPoint x="-1047" y="1512" />
        </Array>
      </mxGeometry>
    </mxCell>
    <mxCell id="edge3" edge="1" value="" parent="1" source="node3" target="node9" style="html=1;rounded=1;edgeStyle=orthogonalEdgeStyle;dashed=0;startArrow=none;endArrow=block;endSize=12;strokeColor=#000082;exitX=0.500;exitY=0.000;exitDx=0;exitDy=0;entryX=0.500;entryY=1.000;entryDx=0;entryDy=0;">
      <mxGeometry width="50" height="50" relative="1" as="geometry">
        <Array as="points">
          <mxPoint x="-587" y="1512" />
          <mxPoint x="-141" y="1512" />
        </Array>
      </mxGeometry>
    </mxCell>
    <mxCell id="edge4" edge="1" value="" parent="1" source="node3" target="node10" style="html=1;rounded=1;edgeStyle=orthogonalEdgeStyle;dashed=0;startArrow=none;endArrow=block;endSize=12;strokeColor=#000082;exitX=0.500;exitY=0.000;exitDx=0;exitDy=0;entryX=0.500;entryY=1.000;entryDx=0;entryDy=0;">
      <mxGeometry width="50" height="50" relative="1" as="geometry">
        <Array as="points">
          <mxPoint x="-587" y="1052" />
          <mxPoint x="-280" y="1052" />
        </Array>
      </mxGeometry>
    </mxCell>
    <mxCell id="edge9" edge="1" value="" parent="1" source="node8" target="node2" style="html=1;rounded=1;edgeStyle=orthogonalEdgeStyle;dashed=0;startArrow=none;endArrow=block;endSize=12;strokeColor=#000082;exitX=0.500;exitY=0.000;exitDx=0;exitDy=0;entryX=0.500;entryY=1.000;entryDx=0;entryDy=0;">
      <mxGeometry width="50" height="50" relative="1" as="geometry">
        <Array as="points" />
      </mxGeometry>
    </mxCell>
    <mxCell id="edge7" edge="1" value="" parent="1" source="node5" target="node8" style="html=1;rounded=1;edgeStyle=orthogonalEdgeStyle;dashed=0;startArrow=none;endArrow=block;endSize=12;strokeColor=#000082;exitX=0.500;exitY=0.000;exitDx=0;exitDy=0;entryX=0.500;entryY=1.000;entryDx=0;entryDy=0;">
      <mxGeometry width="50" height="50" relative="1" as="geometry">
        <Array as="points">
          <mxPoint x="-1047" y="1052" />
          <mxPoint x="-752" y="1052" />
        </Array>
      </mxGeometry>
    </mxCell>
    <mxCell id="edge0" edge="1" value="" parent="1" source="node4" target="node9" style="html=1;rounded=1;edgeStyle=orthogonalEdgeStyle;dashed=0;startArrow=none;endArrow=block;endSize=12;strokeColor=#000082;exitX=0.500;exitY=0.000;exitDx=0;exitDy=0;entryX=0.500;entryY=1.000;entryDx=0;entryDy=0;">
      <mxGeometry width="50" height="50" relative="1" as="geometry">
        <Array as="points" />
      </mxGeometry>
    </mxCell>
    <mxCell id="edge5" edge="1" value="" parent="1" source="node9" target="node10" style="html=1;rounded=1;edgeStyle=orthogonalEdgeStyle;dashed=0;startArrow=none;endArrow=block;endSize=12;strokeColor=#000082;exitX=0.500;exitY=0.000;exitDx=0;exitDy=0;entryX=0.500;entryY=1.000;entryDx=0;entryDy=0;">
      <mxGeometry width="50" height="50" relative="1" as="geometry">
        <Array as="points">
          <mxPoint x="-141" y="1052" />
          <mxPoint x="-280" y="1052" />
        </Array>
      </mxGeometry>
    </mxCell>
    <mxCell id="edge10" edge="1" value="" parent="1" source="node2" target="node7" style="html=1;rounded=1;edgeStyle=orthogonalEdgeStyle;dashed=0;startArrow=none;endArrow=block;endSize=12;strokeColor=#000082;exitX=0.500;exitY=0.000;exitDx=0;exitDy=0;entryX=0.500;entryY=1.000;entryDx=0;entryDy=0;">
      <mxGeometry width="50" height="50" relative="1" as="geometry">
        <Array as="points" />
      </mxGeometry>
    </mxCell>
    <mxCell id="edge8" edge="1" value="" parent="1" source="node6" target="node8" style="html=1;rounded=1;edgeStyle=orthogonalEdgeStyle;dashed=0;startArrow=none;endArrow=block;endSize=12;strokeColor=#000082;exitX=0.500;exitY=0.000;exitDx=0;exitDy=0;entryX=0.500;entryY=1.000;entryDx=0;entryDy=0;">
      <mxGeometry width="50" height="50" relative="1" as="geometry">
        <Array as="points" />
      </mxGeometry>
    </mxCell>
    <mxCell id="edge2" edge="1" value="" parent="1" source="node0" target="node3" style="html=1;rounded=1;edgeStyle=orthogonalEdgeStyle;dashed=0;startArrow=none;endArrow=block;endSize=12;strokeColor=#000082;exitX=0.500;exitY=0.000;exitDx=0;exitDy=0;entryX=0.500;entryY=1.000;entryDx=0;entryDy=0;">
      <mxGeometry width="50" height="50" relative="1" as="geometry">
        <Array as="points" />
      </mxGeometry>
    </mxCell>
    <mxCell id="edge1" edge="1" value="" parent="1" source="node1" target="node9" style="html=1;rounded=1;edgeStyle=orthogonalEdgeStyle;dashed=0;startArrow=none;endArrow=block;endSize=12;strokeColor=#000082;exitX=0.500;exitY=0.000;exitDx=0;exitDy=0;entryX=0.500;entryY=1.000;entryDx=0;entryDy=0;">
      <mxGeometry width="50" height="50" relative="1" as="geometry">
        <Array as="points">
          <mxPoint x="128" y="1512" />
          <mxPoint x="-141" y="1512" />
        </Array>
      </mxGeometry>
    </mxCell>
  </root>
</mxGraphModel>